<?xml version="1.0" encoding="utf-8"?>
<svg version="1.0" id="katman_1" xmlns="http://www.w3.org/2000/svg" xmlns:xlink="http://www.w3.org/1999/xlink" x="0px" y="0px"
	 viewBox="0 0 195.1 26" style="enable-background:new 0 0 195.1 26;" xml:space="preserve">
<style type="text/css">
	.st0{fill:#FF642D;}
</style>
<path d="M134.7,10.2c0-3.2-2-5.5-5.7-5.5h-12.2v16.6h4v-5.7h4.7l4.6,5.7h4.5v-0.4l-4.5-5.4C133,14.9,134.7,12.8,134.7,10.2z
	 M128.5,12.2h-7.7V8.1h7.7c1.4,0,2.3,0.8,2.3,2.1C130.9,11.5,130,12.2,128.5,12.2z"/>
<path d="M195.1,4.6h-3.7v6.3h-10.1V4.6h-4v16.6h4v-6.5h10.1v6.5h3.7V4.6z"/>
<path d="M106.1,4.6l-4.4,13.9h-0.2L97,4.6h-7.1v16.6h3.8V7.6h0.2l4.4,13.6h6.1l4.5-13.6h0.2v13.6h3.9V4.6H106.1z"/>
<path d="M62.6,11.4c-1.4-0.1-4-0.4-5.5-0.5c-1.4-0.1-2.2-0.6-2.2-1.5c0-0.9,0.9-1.6,4.3-1.6c3,0,5.8,0.7,8.3,1.8V5.9
	c-2.4-1.2-5.1-1.7-8.5-1.7c-4.7,0-8,2-8,5.3c0,2.8,1.9,4.4,5.8,4.8c1.4,0.2,3.8,0.4,5.4,0.5c1.8,0.1,2.3,0.7,2.3,1.5
	c0,1.1-1.3,1.8-4.4,1.8c-3.2,0-6.5-1.1-8.9-2.5v3.8c1.9,1.3,5.1,2.3,8.8,2.3c5.1,0,8.4-2,8.4-5.5C68.4,13.5,66.7,11.8,62.6,11.4z"/>
<path d="M71.1,4.6v16.6h15.4v-3.4H74.9v-3.4h11.4v-3.4H74.9V8h11.6V4.6H71.1z"/>
<path d="M169,11.4c-1.4-0.1-4-0.4-5.5-0.5c-1.4-0.1-2.2-0.6-2.2-1.5c0-0.9,0.9-1.6,4.3-1.6c3,0,5.8,0.6,8.3,1.8V5.9
	c-2.4-1.2-5.1-1.7-8.5-1.7c-4.7,0-8,2-8,5.3c0,2.8,1.9,4.4,5.8,4.8c1.4,0.2,3.8,0.4,5.4,0.5c1.8,0.1,2.3,0.7,2.3,1.5
	c0,1.1-1.3,1.8-4.4,1.8c-3.2,0-6.5-1.1-8.9-2.5v3.8c1.9,1.3,5.1,2.3,8.8,2.3c5.1,0,8.4-2,8.4-5.5C174.8,13.5,173,11.8,169,11.4z"/>
<path d="M150.7,4.6v8.5c0,3.2-2,5-4.9,5c-3,0-4.9-1.7-4.9-5V4.6h-4v8.1c0,6,3.8,9,8.9,9c5,0,8.8-2.9,8.8-8.8V4.6H150.7z"/>
<path class="st0" d="M37.4,12.8c0,0.8-0.4,0.9-1.4,0.9c-1.1,0-1.3-0.2-1.4-1c-0.2-2.1-1.6-3.9-4-4c-0.7-0.1-0.9-0.3-0.9-1.3
	c0-0.9,0.1-1.3,0.8-1.3C34.5,6.2,37.4,9.5,37.4,12.8z M43.3,12.8c0-6.2-4.2-12.8-14-12.8H10C9.6,0,9.3,0.2,9.3,0.6
	c0,0.2,0.1,0.4,0.3,0.5c0.7,0.6,1.7,1.2,3.1,1.9c1.3,0.7,2.4,1.1,3.4,1.5c0.4,0.2,0.6,0.4,0.6,0.6c0,0.3-0.2,0.6-0.7,0.6H0.7
	C0.2,5.6,0,5.9,0,6.2c0,0.3,0.1,0.5,0.3,0.7c1.2,1.3,3.2,2.9,6.1,4.7c2.5,1.6,5.7,3.3,8.2,4.5c0.4,0.2,0.6,0.4,0.6,0.7
	c0,0.3-0.2,0.5-0.7,0.5H7.4c-0.4,0-0.6,0.2-0.6,0.5c0,0.2,0.1,0.4,0.3,0.6c1.6,1.5,4.2,3,7.6,4.5c4.6,1.9,9.2,3.1,14.4,3.1
	C39,26,43.3,18.6,43.3,12.8z M30.4,21.7c-4.8,0-8.9-3.9-8.9-8.9c0-4.8,4-8.7,8.9-8.7c5,0,8.9,3.9,8.9,8.7
	C39.3,17.7,35.4,21.7,30.4,21.7z"/>
</svg>
